<?xml version="1.0" encoding="UTF-8" standalone="no"?>
<svg
   xmlns:dc="http://purl.org/dc/elements/1.1/"
   xmlns:cc="http://creativecommons.org/ns#"
   xmlns:rdf="http://www.w3.org/1999/02/22-rdf-syntax-ns#"
   xmlns:svg="http://www.w3.org/2000/svg"
   xmlns="http://www.w3.org/2000/svg"
   viewBox="0 0 515.21332 349.57333"
   height="349.57333"
   width="515.21332"
   xml:space="preserve"
   id="svg2"
   version="1.1"><metadata
     id="metadata8"><rdf:RDF><cc:Work
         rdf:about=""><dc:format>image/svg+xml</dc:format><dc:type
           rdf:resource="http://purl.org/dc/dcmitype/StillImage" /></cc:Work></rdf:RDF></metadata><defs
     id="defs6"><clipPath
       id="clipPath170"
       clipPathUnits="userSpaceOnUse"><path
         id="path168"
         d="m 405.898,375.398 h 3348 v 2174 h -3348 z" /></clipPath></defs><g
     transform="matrix(1.3333333,0,0,-1.3333333,0,349.57333)"
     id="g10"><g
       transform="scale(0.1)"
       id="g12"><path
         id="path14"
         style="fill:#ffffff;fill-opacity:1;fill-rule:nonzero;stroke:none"
         d="M 0,0 H 3864.13 V 2621.84 H 0 Z" /><path
         id="path16"
         style="fill:#ffffff;fill-opacity:1;fill-rule:nonzero;stroke:none"
         d="m 405.906,375.438 h 3348 v 2174.4 h -3348 z" /><path
         id="path18"
         style="fill:#000000;fill-opacity:1;fill-rule:nonzero;stroke:none"
         d="m 558.086,375.438 v -35" /><path
         id="path20"
         style="fill:none;stroke:#000000;stroke-width:8;stroke-linecap:butt;stroke-linejoin:round;stroke-miterlimit:10;stroke-dasharray:none;stroke-opacity:1"
         d="m 558.086,375.438 v -35" /><g
         transform="scale(10)"
         id="g22"><text
           id="text26"
           style="font-variant:normal;font-weight:normal;font-size:10px;font-family:Arial;-inkscape-font-specification:Arial;writing-mode:lr-tb;fill:#000000;fill-opacity:1;fill-rule:nonzero;stroke:none"
           transform="matrix(1,0,0,-1,52.6289,22.95)"><tspan
             id="tspan24"
             y="0"
             x="0">0</tspan></text>
</g><path
         id="path28"
         style="fill:#000000;fill-opacity:1;fill-rule:nonzero;stroke:none"
         d="m 1192.18,375.438 v -35" /><path
         id="path30"
         style="fill:none;stroke:#000000;stroke-width:8;stroke-linecap:butt;stroke-linejoin:round;stroke-miterlimit:10;stroke-dasharray:none;stroke-opacity:1"
         d="m 1192.18,375.438 v -35" /><g
         transform="scale(10)"
         id="g32"><text
           id="text36"
           style="font-variant:normal;font-weight:normal;font-size:10px;font-family:Arial;-inkscape-font-specification:Arial;writing-mode:lr-tb;fill:#000000;fill-opacity:1;fill-rule:nonzero;stroke:none"
           transform="matrix(1,0,0,-1,116.038,22.95)"><tspan
             id="tspan34"
             y="0"
             x="0">5</tspan></text>
</g><path
         id="path38"
         style="fill:#000000;fill-opacity:1;fill-rule:nonzero;stroke:none"
         d="m 1826.27,375.438 v -35" /><path
         id="path40"
         style="fill:none;stroke:#000000;stroke-width:8;stroke-linecap:butt;stroke-linejoin:round;stroke-miterlimit:10;stroke-dasharray:none;stroke-opacity:1"
         d="m 1826.27,375.438 v -35" /><g
         transform="scale(10)"
         id="g42"><text
           id="text46"
           style="font-variant:normal;font-weight:normal;font-size:10px;font-family:Arial;-inkscape-font-specification:Arial;writing-mode:lr-tb;fill:#000000;fill-opacity:1;fill-rule:nonzero;stroke:none"
           transform="matrix(1,0,0,-1,176.268,22.95)"><tspan
             id="tspan44"
             y="0"
             x="0 6.362112">10</tspan></text>
</g><path
         id="path48"
         style="fill:#000000;fill-opacity:1;fill-rule:nonzero;stroke:none"
         d="m 2460.36,375.438 v -35" /><path
         id="path50"
         style="fill:none;stroke:#000000;stroke-width:8;stroke-linecap:butt;stroke-linejoin:round;stroke-miterlimit:10;stroke-dasharray:none;stroke-opacity:1"
         d="m 2460.36,375.438 v -35" /><g
         transform="scale(10)"
         id="g52"><text
           id="text56"
           style="font-variant:normal;font-weight:normal;font-size:10px;font-family:Arial;-inkscape-font-specification:Arial;writing-mode:lr-tb;fill:#000000;fill-opacity:1;fill-rule:nonzero;stroke:none"
           transform="matrix(1,0,0,-1,239.677,22.95)"><tspan
             id="tspan54"
             y="0"
             x="0 6.3620996">15</tspan></text>
</g><path
         id="path58"
         style="fill:#000000;fill-opacity:1;fill-rule:nonzero;stroke:none"
         d="m 3094.45,375.438 v -35" /><path
         id="path60"
         style="fill:none;stroke:#000000;stroke-width:8;stroke-linecap:butt;stroke-linejoin:round;stroke-miterlimit:10;stroke-dasharray:none;stroke-opacity:1"
         d="m 3094.45,375.438 v -35" /><g
         transform="scale(10)"
         id="g62"><text
           id="text66"
           style="font-variant:normal;font-weight:normal;font-size:10px;font-family:Arial;-inkscape-font-specification:Arial;writing-mode:lr-tb;fill:#000000;fill-opacity:1;fill-rule:nonzero;stroke:none"
           transform="matrix(1,0,0,-1,303.086,22.95)"><tspan
             id="tspan64"
             y="0"
             x="0 6.3624902">20</tspan></text>
</g><path
         id="path68"
         style="fill:#000000;fill-opacity:1;fill-rule:nonzero;stroke:none"
         d="m 3728.54,375.438 v -35" /><path
         id="path70"
         style="fill:none;stroke:#000000;stroke-width:8;stroke-linecap:butt;stroke-linejoin:round;stroke-miterlimit:10;stroke-dasharray:none;stroke-opacity:1"
         d="m 3728.54,375.438 v -35" /><g
         transform="scale(10)"
         id="g72"><text
           id="text78"
           style="font-variant:normal;font-weight:normal;font-size:10px;font-family:Arial;-inkscape-font-specification:Arial;writing-mode:lr-tb;fill:#000000;fill-opacity:1;fill-rule:nonzero;stroke:none"
           transform="matrix(1,0,0,-1,366.495,22.95)"><tspan
             id="tspan74"
             y="0"
             x="0 6.3624902">25</tspan><tspan
             id="tspan76"
             y="13.6719"
             x="-216.43401 -210.08635 -207.30823 -202.05901 -195.90666 -192.72815 -186.60979 -183.08978 -179.91089 -175.99017 -169.65228 -163.49994 -160.32104 -154.19331 -147.85541 -143.93431 -141.15619 -137.54761 -131.19995 -125.07223 -121.15112 -117.23042 -111.07807 -106.96676">Size of the anti-pattern</tspan></text>
</g><path
         id="path80"
         style="fill:#000000;fill-opacity:1;fill-rule:nonzero;stroke:none"
         d="m 405.902,474.273 h -35" /><path
         id="path82"
         style="fill:none;stroke:#000000;stroke-width:8;stroke-linecap:butt;stroke-linejoin:round;stroke-miterlimit:10;stroke-dasharray:none;stroke-opacity:1"
         d="m 405.902,474.273 h -35" /><g
         transform="scale(10)"
         id="g84"><text
           id="text88"
           style="font-variant:normal;font-weight:normal;font-size:10px;font-family:Arial;-inkscape-font-specification:Arial;writing-mode:lr-tb;fill:#000000;fill-opacity:1;fill-rule:nonzero;stroke:none"
           transform="matrix(1,0,0,-1,27.2313,43.6305)"><tspan
             id="tspan86"
             y="0"
             x="0">0</tspan></text>
</g><path
         id="path90"
         style="fill:#000000;fill-opacity:1;fill-rule:nonzero;stroke:none"
         d="m 405.902,741.398 h -35" /><path
         id="path92"
         style="fill:none;stroke:#000000;stroke-width:8;stroke-linecap:butt;stroke-linejoin:round;stroke-miterlimit:10;stroke-dasharray:none;stroke-opacity:1"
         d="m 405.902,741.398 h -35" /><g
         transform="scale(10)"
         id="g94"><text
           id="text98"
           style="font-variant:normal;font-weight:normal;font-size:10px;font-family:Arial;-inkscape-font-specification:Arial;writing-mode:lr-tb;fill:#000000;fill-opacity:1;fill-rule:nonzero;stroke:none"
           transform="matrix(1,0,0,-1,27.2313,70.343)"><tspan
             id="tspan96"
             y="0"
             x="0">5</tspan></text>
</g><path
         id="path100"
         style="fill:#000000;fill-opacity:1;fill-rule:nonzero;stroke:none"
         d="m 405.902,1008.52 h -35" /><path
         id="path102"
         style="fill:none;stroke:#000000;stroke-width:8;stroke-linecap:butt;stroke-linejoin:round;stroke-miterlimit:10;stroke-dasharray:none;stroke-opacity:1"
         d="m 405.902,1008.52 h -35" /><g
         transform="scale(10)"
         id="g104"><text
           id="text108"
           style="font-variant:normal;font-weight:normal;font-size:10px;font-family:Arial;-inkscape-font-specification:Arial;writing-mode:lr-tb;fill:#000000;fill-opacity:1;fill-rule:nonzero;stroke:none"
           transform="matrix(1,0,0,-1,20.8719,97.0555)"><tspan
             id="tspan106"
             y="0"
             x="0 6.3621087">10</tspan></text>
</g><path
         id="path110"
         style="fill:#000000;fill-opacity:1;fill-rule:nonzero;stroke:none"
         d="m 405.902,1275.65 h -35" /><path
         id="path112"
         style="fill:none;stroke:#000000;stroke-width:8;stroke-linecap:butt;stroke-linejoin:round;stroke-miterlimit:10;stroke-dasharray:none;stroke-opacity:1"
         d="m 405.902,1275.65 h -35" /><g
         transform="scale(10)"
         id="g114"><text
           id="text118"
           style="font-variant:normal;font-weight:normal;font-size:10px;font-family:Arial;-inkscape-font-specification:Arial;writing-mode:lr-tb;fill:#000000;fill-opacity:1;fill-rule:nonzero;stroke:none"
           transform="matrix(1,0,0,-1,20.8719,123.768)"><tspan
             id="tspan116"
             y="0"
             x="0 6.3621087">15</tspan></text>
</g><path
         id="path120"
         style="fill:#000000;fill-opacity:1;fill-rule:nonzero;stroke:none"
         d="m 405.902,1542.78 h -35" /><path
         id="path122"
         style="fill:none;stroke:#000000;stroke-width:8;stroke-linecap:butt;stroke-linejoin:round;stroke-miterlimit:10;stroke-dasharray:none;stroke-opacity:1"
         d="m 405.902,1542.78 h -35" /><g
         transform="scale(10)"
         id="g124"><text
           id="text128"
           style="font-variant:normal;font-weight:normal;font-size:10px;font-family:Arial;-inkscape-font-specification:Arial;writing-mode:lr-tb;fill:#000000;fill-opacity:1;fill-rule:nonzero;stroke:none"
           transform="matrix(1,0,0,-1,20.8719,150.48)"><tspan
             id="tspan126"
             y="0"
             x="0 6.3621087">20</tspan></text>
</g><path
         id="path130"
         style="fill:#000000;fill-opacity:1;fill-rule:nonzero;stroke:none"
         d="m 405.902,1809.9 h -35" /><path
         id="path132"
         style="fill:none;stroke:#000000;stroke-width:8;stroke-linecap:butt;stroke-linejoin:round;stroke-miterlimit:10;stroke-dasharray:none;stroke-opacity:1"
         d="m 405.902,1809.9 h -35" /><g
         transform="scale(10)"
         id="g134"><text
           id="text138"
           style="font-variant:normal;font-weight:normal;font-size:10px;font-family:Arial;-inkscape-font-specification:Arial;writing-mode:lr-tb;fill:#000000;fill-opacity:1;fill-rule:nonzero;stroke:none"
           transform="matrix(1,0,0,-1,20.8719,177.193)"><tspan
             id="tspan136"
             y="0"
             x="0 6.3621087">25</tspan></text>
</g><path
         id="path140"
         style="fill:#000000;fill-opacity:1;fill-rule:nonzero;stroke:none"
         d="m 405.902,2077.03 h -35" /><path
         id="path142"
         style="fill:none;stroke:#000000;stroke-width:8;stroke-linecap:butt;stroke-linejoin:round;stroke-miterlimit:10;stroke-dasharray:none;stroke-opacity:1"
         d="m 405.902,2077.03 h -35" /><g
         transform="scale(10)"
         id="g144"><text
           id="text148"
           style="font-variant:normal;font-weight:normal;font-size:10px;font-family:Arial;-inkscape-font-specification:Arial;writing-mode:lr-tb;fill:#000000;fill-opacity:1;fill-rule:nonzero;stroke:none"
           transform="matrix(1,0,0,-1,20.8719,203.905)"><tspan
             id="tspan146"
             y="0"
             x="0 6.3621087">30</tspan></text>
</g><path
         id="path150"
         style="fill:#000000;fill-opacity:1;fill-rule:nonzero;stroke:none"
         d="m 405.902,2344.15 h -35" /><path
         id="path152"
         style="fill:none;stroke:#000000;stroke-width:8;stroke-linecap:butt;stroke-linejoin:round;stroke-miterlimit:10;stroke-dasharray:none;stroke-opacity:1"
         d="m 405.902,2344.15 h -35" /><g
         transform="scale(10)"
         id="g154"><text
           id="text158"
           style="font-variant:normal;font-weight:normal;font-size:10px;font-family:Arial;-inkscape-font-specification:Arial;writing-mode:lr-tb;fill:#000000;fill-opacity:1;fill-rule:nonzero;stroke:none"
           transform="matrix(1,0,0,-1,20.8719,230.618)"><tspan
             id="tspan156"
             y="0"
             x="0 6.3621087">35</tspan></text>
<text
           id="text162"
           style="font-variant:normal;font-weight:normal;font-size:10px;font-family:Arial;-inkscape-font-specification:Arial;writing-mode:lr-tb;fill:#000000;fill-opacity:1;fill-rule:nonzero;stroke:none"
           transform="matrix(0,1,1,0,14.7938,86.1309)"><tspan
             id="tspan160"
             y="0"
             x="0 6.8406224 16.582026 22.700001 29.037888 35.375778 39.296875 42.475388 48.59375 52.11375 55.292652 61.42038 67.75827 71.679367 74.457489 78.066086 84.413742 90.541473 94.46257 98.383278 104.53562 108.64695 114.98484">Amount of anti-patterns</tspan></text>
</g><g
         id="g164"><g
           clip-path="url(#clipPath170)"
           id="g166"><path
             id="path172"
             style="fill:none;stroke:#3cb44b;stroke-width:15;stroke-linecap:square;stroke-linejoin:round;stroke-miterlimit:10;stroke-dasharray:none;stroke-opacity:1"
             d="m 558.086,474.273 h 380.453 l 126.821,53.426 126.82,53.422 126.82,53.426 126.81,-53.426 126.82,-53.422 h 126.82 l 126.82,-53.426 126.82,106.848 126.82,-53.422 126.81,-53.426 h 126.82 126.82 126.82 126.82 126.81 126.82 126.82 126.82 126.82 126.82 126.81" /><path
             id="path174"
             style="fill:none;stroke:#e6194b;stroke-width:15;stroke-linecap:square;stroke-linejoin:round;stroke-miterlimit:10;stroke-dasharray:none;stroke-opacity:1"
             d="m 558.086,474.273 h 253.637 l 126.816,53.426 126.821,106.848 126.82,160.277 126.82,53.426 126.81,160.27 126.82,213.7 126.82,-106.84 126.82,160.27 126.82,106.85 126.82,-267.12 126.81,213.69 126.82,-267.12 L 2460.36,901.672 2587.18,634.547 2714,474.273 h 126.81 126.82 126.82 126.82 126.82 126.82 126.81" /><path
             id="path176"
             style="fill:none;stroke:#4363d8;stroke-width:15;stroke-linecap:square;stroke-linejoin:round;stroke-miterlimit:10;stroke-dasharray:none;stroke-opacity:1"
             d="m 558.086,474.273 h 507.274 l 126.82,160.274 126.82,106.851 126.81,320.552 126.82,160.27 126.82,160.28 126.82,373.97 126.82,213.71 126.82,-106.86 126.81,587.68 126.82,-587.68 126.82,-534.25 126.82,-427.398 126.82,-213.699 126.81,-160.274 126.82,53.422 126.82,-106.848 h 126.82 126.82 126.82 126.81" /></g></g><path
         id="path178"
         style="fill:#ffffff;fill-opacity:1;fill-rule:nonzero;stroke:none"
         d="m 2940.78,2029.68 h 743.13 c 13.33,0 20,6.67 20,20 v 430.16 c 0,13.33 -6.67,20 -20,20 h -743.13 c -13.33,0 -20,-6.67 -20,-20 v -430.16 c 0,-13.33 6.67,-20 20,-20" /><path
         id="path180"
         style="fill:none;stroke:#cccccc;stroke-width:10;stroke-linecap:butt;stroke-linejoin:miter;stroke-miterlimit:10;stroke-dasharray:none;stroke-opacity:1"
         d="m 2940.78,2029.68 h 743.13 c 13.33,0 20,6.67 20,20 v 430.16 c 0,13.33 -6.67,20 -20,20 h -743.13 c -13.33,0 -20,-6.67 -20,-20 v -430.16 c 0,-13.33 6.67,-20 20,-20 z" /><path
         id="path182"
         style="fill:none;stroke:#3cb44b;stroke-width:15;stroke-linecap:square;stroke-linejoin:round;stroke-miterlimit:10;stroke-dasharray:none;stroke-opacity:1"
         d="m 2960.78,2418.9 h 200" /><g
         transform="scale(10)"
         id="g184"><text
           id="text188"
           style="font-variant:normal;font-weight:normal;font-size:10px;font-family:Arial;-inkscape-font-specification:Arial;writing-mode:lr-tb;fill:#000000;fill-opacity:1;fill-rule:nonzero;stroke:none"
           transform="matrix(1,0,0,-1,324.078,238.39)"><tspan
             id="tspan186"
             y="0"
             x="0 7.6999998 14.560537 20.908194 27.060537 33.408192 36.186314">DBpedia</tspan></text>
</g><path
         id="path190"
         style="fill:none;stroke:#e6194b;stroke-width:15;stroke-linecap:square;stroke-linejoin:round;stroke-miterlimit:10;stroke-dasharray:none;stroke-opacity:1"
         d="m 2960.78,2272.18 h 200" /><g
         transform="scale(10)"
         id="g192"><text
           id="text196"
           style="font-variant:normal;font-weight:normal;font-size:10px;font-family:Arial;-inkscape-font-specification:Arial;writing-mode:lr-tb;fill:#000000;fill-opacity:1;fill-rule:nonzero;stroke:none"
           transform="matrix(1,0,0,-1,324.078,223.718)"><tspan
             id="tspan194"
             y="0"
             x="0 6.0925684 12.220689 18.568344">Yago</tspan></text>
</g><path
         id="path198"
         style="fill:none;stroke:#4363d8;stroke-width:15;stroke-linecap:square;stroke-linejoin:round;stroke-miterlimit:10;stroke-dasharray:none;stroke-opacity:1"
         d="m 2960.78,2125.46 h 200" /><g
         transform="scale(10)"
         id="g200"><text
           id="text204"
           style="font-variant:normal;font-weight:normal;font-size:10px;font-family:Arial;-inkscape-font-specification:Arial;writing-mode:lr-tb;fill:#000000;fill-opacity:1;fill-rule:nonzero;stroke:none"
           transform="matrix(1,0,0,-1,324.078,209.046)"><tspan
             id="tspan202"
             y="0"
             x="0 5.5710988 13.442197">LOD</tspan></text>
</g></g></g></svg>