<?xml version="1.0" encoding="UTF-8" standalone="no"?>
<svg
   xmlns:dc="http://purl.org/dc/elements/1.1/"
   xmlns:cc="http://creativecommons.org/ns#"
   xmlns:rdf="http://www.w3.org/1999/02/22-rdf-syntax-ns#"
   xmlns:svg="http://www.w3.org/2000/svg"
   xmlns="http://www.w3.org/2000/svg"
   viewBox="0 0 517.15997 349.57333"
   height="349.57333"
   width="517.15997"
   xml:space="preserve"
   id="svg2"
   version="1.1"><metadata
     id="metadata8"><rdf:RDF><cc:Work
         rdf:about=""><dc:format>image/svg+xml</dc:format><dc:type
           rdf:resource="http://purl.org/dc/dcmitype/StillImage" /></cc:Work></rdf:RDF></metadata><defs
     id="defs6"><clipPath
       id="clipPath136"
       clipPathUnits="userSpaceOnUse"><path
         id="path134"
         d="m 458.699,375.398 h 3348 v 2174 h -3348 z" /></clipPath></defs><g
     transform="matrix(1.3333333,0,0,-1.3333333,0,349.57333)"
     id="g10"><g
       transform="scale(0.1)"
       id="g12"><path
         id="path14"
         style="fill:#ffffff;fill-opacity:1;fill-rule:nonzero;stroke:none"
         d="M 0,0 H 3878.72 V 2621.84 H 0 Z" /><path
         id="path16"
         style="fill:#ffffff;fill-opacity:1;fill-rule:nonzero;stroke:none"
         d="m 458.719,375.438 h 3348 v 2174.4 h -3348 z" /><path
         id="path18"
         style="fill:#000000;fill-opacity:1;fill-rule:nonzero;stroke:none"
         d="m 610.902,375.438 v -35" /><path
         id="path20"
         style="fill:none;stroke:#000000;stroke-width:8;stroke-linecap:butt;stroke-linejoin:round;stroke-miterlimit:10;stroke-dasharray:none;stroke-opacity:1"
         d="m 610.902,375.438 v -35" /><g
         transform="scale(10)"
         id="g22"><text
           id="text26"
           style="font-variant:normal;font-weight:normal;font-size:10px;font-family:Arial;-inkscape-font-specification:Arial;writing-mode:lr-tb;fill:#000000;fill-opacity:1;fill-rule:nonzero;stroke:none"
           transform="matrix(1,0,0,-1,57.9102,22.95)"><tspan
             id="tspan24"
             y="0"
             x="0">0</tspan></text>
</g><path
         id="path28"
         style="fill:#000000;fill-opacity:1;fill-rule:nonzero;stroke:none"
         d="m 1299.51,375.438 v -35" /><path
         id="path30"
         style="fill:none;stroke:#000000;stroke-width:8;stroke-linecap:butt;stroke-linejoin:round;stroke-miterlimit:10;stroke-dasharray:none;stroke-opacity:1"
         d="m 1299.51,375.438 v -35" /><g
         transform="scale(10)"
         id="g32"><text
           id="text36"
           style="font-variant:normal;font-weight:normal;font-size:10px;font-family:Arial;-inkscape-font-specification:Arial;writing-mode:lr-tb;fill:#000000;fill-opacity:1;fill-rule:nonzero;stroke:none"
           transform="matrix(1,0,0,-1,123.591,22.95)"><tspan
             id="tspan34"
             y="0"
             x="0 6.3625026">50</tspan></text>
</g><path
         id="path38"
         style="fill:#000000;fill-opacity:1;fill-rule:nonzero;stroke:none"
         d="m 1988.11,375.438 v -35" /><path
         id="path40"
         style="fill:none;stroke:#000000;stroke-width:8;stroke-linecap:butt;stroke-linejoin:round;stroke-miterlimit:10;stroke-dasharray:none;stroke-opacity:1"
         d="m 1988.11,375.438 v -35" /><g
         transform="scale(10)"
         id="g42"><text
           id="text46"
           style="font-variant:normal;font-weight:normal;font-size:10px;font-family:Arial;-inkscape-font-specification:Arial;writing-mode:lr-tb;fill:#000000;fill-opacity:1;fill-rule:nonzero;stroke:none"
           transform="matrix(1,0,0,-1,189.272,22.95)"><tspan
             id="tspan44"
             y="0"
             x="0 6.3625026 12.724614">100</tspan></text>
</g><path
         id="path48"
         style="fill:#000000;fill-opacity:1;fill-rule:nonzero;stroke:none"
         d="m 2676.72,375.438 v -35" /><path
         id="path50"
         style="fill:none;stroke:#000000;stroke-width:8;stroke-linecap:butt;stroke-linejoin:round;stroke-miterlimit:10;stroke-dasharray:none;stroke-opacity:1"
         d="m 2676.72,375.438 v -35" /><g
         transform="scale(10)"
         id="g52"><text
           id="text56"
           style="font-variant:normal;font-weight:normal;font-size:10px;font-family:Arial;-inkscape-font-specification:Arial;writing-mode:lr-tb;fill:#000000;fill-opacity:1;fill-rule:nonzero;stroke:none"
           transform="matrix(1,0,0,-1,258.133,22.95)"><tspan
             id="tspan54"
             y="0"
             x="0 6.3620996 12.72459">150</tspan></text>
</g><path
         id="path58"
         style="fill:#000000;fill-opacity:1;fill-rule:nonzero;stroke:none"
         d="m 3365.32,375.438 v -35" /><path
         id="path60"
         style="fill:none;stroke:#000000;stroke-width:8;stroke-linecap:butt;stroke-linejoin:round;stroke-miterlimit:10;stroke-dasharray:none;stroke-opacity:1"
         d="m 3365.32,375.438 v -35" /><g
         transform="scale(10)"
         id="g62"><text
           id="text68"
           style="font-variant:normal;font-weight:normal;font-size:10px;font-family:Arial;-inkscape-font-specification:Arial;writing-mode:lr-tb;fill:#000000;fill-opacity:1;fill-rule:nonzero;stroke:none"
           transform="matrix(1,0,0,-1,326.993,22.95)"><tspan
             id="tspan64"
             y="0"
             x="0 6.3624902 12.72459">200</tspan><tspan
             id="tspan66"
             y="13.6719"
             x="-156.698 -149.85738 -143.51949 -139.59839 -136.82027 -133.21167 -126.86402 -120.73629 -116.81519 -112.89449 -106.74214 -102.63082 -96.292923 -93.114021 -89.193314 -83.275337 -76.927681">Anti-pattern type</tspan></text>
</g><path
         id="path70"
         style="fill:#000000;fill-opacity:1;fill-rule:nonzero;stroke:none"
         d="m 458.719,732.258 h -35" /><path
         id="path72"
         style="fill:none;stroke:#000000;stroke-width:8;stroke-linecap:butt;stroke-linejoin:round;stroke-miterlimit:10;stroke-dasharray:none;stroke-opacity:1"
         d="m 458.719,732.258 h -35" /><g
         transform="scale(10)"
         id="g74"><text
           id="text78"
           style="font-variant:normal;font-weight:normal;font-size:10px;font-family:Arial;-inkscape-font-specification:Arial;writing-mode:lr-tb;fill:#000000;fill-opacity:1;fill-rule:nonzero;stroke:none"
           transform="matrix(1,0,0,-1,20.8719,69.3289)"><tspan
             id="tspan76"
             y="0"
             x="0 6.3621087">10</tspan></text>
<text
           id="text82"
           style="font-variant:normal;font-weight:normal;font-size:7px;font-family:Arial;-inkscape-font-specification:Arial;writing-mode:lr-tb;fill:#000000;fill-opacity:1;fill-rule:nonzero;stroke:none"
           transform="matrix(1,0,0,-1,33.6922,73.15703)"><tspan
             id="tspan80"
             y="0"
             x="0">1</tspan></text>
</g><path
         id="path84"
         style="fill:#000000;fill-opacity:1;fill-rule:nonzero;stroke:none"
         d="m 458.719,1248.23 h -35" /><path
         id="path86"
         style="fill:none;stroke:#000000;stroke-width:8;stroke-linecap:butt;stroke-linejoin:round;stroke-miterlimit:10;stroke-dasharray:none;stroke-opacity:1"
         d="m 458.719,1248.23 h -35" /><g
         transform="scale(10)"
         id="g88"><text
           id="text92"
           style="font-variant:normal;font-weight:normal;font-size:10px;font-family:Arial;-inkscape-font-specification:Arial;writing-mode:lr-tb;fill:#000000;fill-opacity:1;fill-rule:nonzero;stroke:none"
           transform="matrix(1,0,0,-1,20.8719,121.339)"><tspan
             id="tspan90"
             y="0"
             x="0 6.3621087">10</tspan></text>
<text
           id="text96"
           style="font-variant:normal;font-weight:normal;font-size:7px;font-family:Arial;-inkscape-font-specification:Arial;writing-mode:lr-tb;fill:#000000;fill-opacity:1;fill-rule:nonzero;stroke:none"
           transform="matrix(1,0,0,-1,33.6922,125.16713)"><tspan
             id="tspan94"
             y="0"
             x="0">3</tspan></text>
</g><path
         id="path98"
         style="fill:#000000;fill-opacity:1;fill-rule:nonzero;stroke:none"
         d="m 458.719,1764.2 h -35" /><path
         id="path100"
         style="fill:none;stroke:#000000;stroke-width:8;stroke-linecap:butt;stroke-linejoin:round;stroke-miterlimit:10;stroke-dasharray:none;stroke-opacity:1"
         d="m 458.719,1764.2 h -35" /><g
         transform="scale(10)"
         id="g102"><text
           id="text106"
           style="font-variant:normal;font-weight:normal;font-size:10px;font-family:Arial;-inkscape-font-specification:Arial;writing-mode:lr-tb;fill:#000000;fill-opacity:1;fill-rule:nonzero;stroke:none"
           transform="matrix(1,0,0,-1,20.8719,172.523)"><tspan
             id="tspan104"
             y="0"
             x="0 6.3621087">10</tspan></text>
<text
           id="text110"
           style="font-variant:normal;font-weight:normal;font-size:7px;font-family:Arial;-inkscape-font-specification:Arial;writing-mode:lr-tb;fill:#000000;fill-opacity:1;fill-rule:nonzero;stroke:none"
           transform="matrix(1,0,0,-1,33.6922,176.35113)"><tspan
             id="tspan108"
             y="0"
             x="0">5</tspan></text>
</g><path
         id="path112"
         style="fill:#000000;fill-opacity:1;fill-rule:nonzero;stroke:none"
         d="m 458.719,2280.18 h -35" /><path
         id="path114"
         style="fill:none;stroke:#000000;stroke-width:8;stroke-linecap:butt;stroke-linejoin:round;stroke-miterlimit:10;stroke-dasharray:none;stroke-opacity:1"
         d="m 458.719,2280.18 h -35" /><g
         transform="scale(10)"
         id="g116"><text
           id="text120"
           style="font-variant:normal;font-weight:normal;font-size:10px;font-family:Arial;-inkscape-font-specification:Arial;writing-mode:lr-tb;fill:#000000;fill-opacity:1;fill-rule:nonzero;stroke:none"
           transform="matrix(1,0,0,-1,20.8719,224.121)"><tspan
             id="tspan118"
             y="0"
             x="0 6.3621087">10</tspan></text>
<text
           id="text124"
           style="font-variant:normal;font-weight:normal;font-size:7px;font-family:Arial;-inkscape-font-specification:Arial;writing-mode:lr-tb;fill:#000000;fill-opacity:1;fill-rule:nonzero;stroke:none"
           transform="matrix(1,0,0,-1,33.6922,227.94913)"><tspan
             id="tspan122"
             y="0"
             x="0">7</tspan></text>
<text
           id="text128"
           style="font-variant:normal;font-weight:normal;font-size:10px;font-family:Arial;-inkscape-font-specification:Arial;writing-mode:lr-tb;fill:#000000;fill-opacity:1;fill-rule:nonzero;stroke:none"
           transform="matrix(0,1,1,0,14.7938,73.1543)"><tspan
             id="tspan126"
             y="0"
             x="0 2.9492188 9.2871065 14.497107 18.4182 21.196325 24.717028 27.495153 32.993202 39.121323 43.04203 45.820541 51.938515 58.276402 63.486401 66.664909 73.012566 79.164909 83.276245 86.455147 92.58287 98.920761 102.84186 105.61998 109.22858 115.57623 121.70396 125.62506 129.54578 135.69812 139.80943">Justifications per anti-pattern</tspan></text>
</g><g
         id="g130"><g
           clip-path="url(#clipPath136)"
           id="g132"><path
             id="path138"
             style="fill:none;stroke:#3cb44b;stroke-width:15;stroke-linecap:square;stroke-linejoin:round;stroke-miterlimit:10;stroke-dasharray:none;stroke-opacity:1"
             d="m 610.898,1639.98 13.774,-66.74 13.773,-22.74 13.77,-53.98 13.773,-9.73 13.774,-24.41 13.769,-46.4 13.774,-60.35 13.773,-30.41 13.77,-13.78 13.773,-280.34 13.774,-338.803 13.769,-218.024" /><path
             id="path140"
             style="fill:none;stroke:#e6194b;stroke-width:15;stroke-linecap:square;stroke-linejoin:round;stroke-miterlimit:10;stroke-dasharray:none;stroke-opacity:1"
             d="m 610.898,1913.64 13.774,-1.44 13.773,-3.73 41.317,-1.95 13.769,-7.59 13.774,-2.46 27.543,-2.75 27.547,-1.98 13.769,-3.52 h 13.774 l 13.773,-3.09 41.316,-2.54 27.543,-0.82 13.774,-2.88 13.769,-5.51 27.547,-4.22 13.77,-3.03 41.316,-1.26 13.774,-0.96 13.77,-4.59 27.55,-1.75 27.54,-1.78 68.86,-7.68 13.77,-0.54 41.32,-7.18 13.77,-0.03 13.77,-4.66 27.55,-1.31 41.31,-8.41 13.77,-3.79 27.55,-1.89 27.54,-1.17 27.55,-5.23 13.77,-5.48 55.09,-8.5 13.77,-0.13 55.09,-5.21 13.77,-23.12 41.32,-0.28 13.77,-3.06 13.77,-6 41.32,-1.77 13.77,-3.59 13.77,-1.01 27.55,-11.28 13.77,-6.9 13.77,-0.74 13.77,-5.92 27.55,-0.73 13.77,-1.14 13.77,-6.62 13.77,-0.11 27.55,-7.63 27.54,-34.3 13.77,-6.92 13.78,-4.99 13.77,-9.63 13.77,-0.29 13.77,-26.62 13.77,-43.15 13.78,-6.27 h 13.77 l 13.77,-3.36 13.77,-7.13 13.78,-51.18 13.77,-16.77 13.77,-10.26 27.54,-3.2 13.78,-42.28 13.77,-104.56 13.77,-21.06 13.77,-28.9 13.78,-2.57 13.77,-11.56 13.77,-1.97 13.77,-3.23 13.77,-8.94 13.77,-11.41 13.78,-58.56 13.77,-119.56 13.77,-8.1 13.77,-32.24 13.77,-139.986 h 13.78 l 13.77,-29.657 13.77,-74.316 27.55,-99.414 h 13.77 l 13.77,-37.699 13.77,-57.235 13.77,-45.429 13.78,-77.661 v 0" /><path
             id="path142"
             style="fill:none;stroke:#4363d8;stroke-width:15;stroke-linecap:square;stroke-linejoin:round;stroke-miterlimit:10;stroke-dasharray:none;stroke-opacity:1"
             d="m 610.898,2451 13.774,-0.44 13.773,-5.79 41.317,-2.66 41.316,-14.37 27.543,-2.32 13.774,-4.65 13.769,-2.66 13.774,-0.14 13.773,-4.95 13.769,-1.45 13.774,-5.62 13.773,-1.16 13.77,-3.47 13.773,-0.93 13.774,-4.77 13.769,-3.43 13.774,-18.03 13.773,-5.92 13.77,-2.97 13.773,-12.39 13.774,-8.88 13.769,-0.08 27.544,-10.39 27.55,-4.7 13.77,-31.14 13.77,-3.21 13.77,-1.7 13.78,-12.06 13.77,-15.14 13.77,-9.31 13.77,-20.39 13.77,-5.57 13.78,-23.04 27.54,-103.96 151.49,-0.01 13.77,-25 h 68.86 l 13.78,-54.41 13.77,-40.5 13.77,-20.97 13.77,-6.29 13.78,-0.88 13.77,-25.01 13.77,-35.01 h 13.77 l 13.77,-84.61 13.78,-18.32 41.31,-0.3 13.78,-22.2 13.77,-2.8 13.77,-26.78 13.77,-0.13 13.77,-5.82 13.78,-9.42 13.77,-17.5 13.77,-41.58 27.54,-0.65 82.63,-0.13 41.32,-4.35 13.77,-1.8 13.78,-11.8 13.77,-5.6 55.09,-1.21 96.4,-0.22 13.77,-11.33 13.78,-17.55 27.54,-3.44 13.77,-7.04 13.78,-1 13.77,-5.54 13.77,-3.09 13.77,-17.67 27.54,-2.79 13.78,-47.99 13.77,-65.62 13.77,-4.73 13.77,-21.45 13.77,-13.65 13.78,-21.85 13.77,-4.74 13.77,-43.93 13.77,-2.4 13.78,-23.17 13.77,-3.51 13.77,-8.01 13.77,-19.65 13.77,-15.11 13.78,-2.42 27.54,-0.9 13.77,-45.71 13.78,-4.47 13.77,-0.86 13.77,-29.96 h 13.77 l 13.77,-1.7 13.78,-14.2 27.54,-1.52 13.77,-10.81 13.78,-8.27 h 13.77 l 13.77,-2.1 13.77,-14.39 13.77,-4.3 13.78,-31.61 13.77,-6.4 13.77,-3.58 13.77,-5.57 27.54,-8.42 13.78,-12.49 h 13.77 l 13.77,-1.74 13.77,-4.77 13.77,-1.84 27.55,-37.08 27.54,-12.76 13.78,-1.95 h 13.77 l 27.54,-22.817 13.77,-8.765 13.78,-1.313 13.77,-11.074 13.77,-7.523 13.77,-3.157 13.78,-13.597 13.77,-1.821 13.77,-3.734 13.77,-7.867 13.77,-2.055 h 13.78 l 13.77,-4.23 13.77,-6.657 13.77,-28.484 h 13.78 l 13.77,-9.215 13.77,-13.598 13.77,-7.472 13.77,-12.235 h 27.55 l 13.77,-18.718 13.77,-5.211 13.78,-17.27 13.76,-13.199 h 13.78 l 13.77,-23.262 13.77,-18.718 13.77,-10.68 h 13.78 l 27.54,-25 h 123.95 l 13.77,-14.961 h 13.77 l 13.78,-37.699 h 13.77 l 13.77,-57.235 h 13.77 l 13.77,-45.429 h 82.64 v 0" /></g></g><path
         id="path144"
         style="fill:#ffffff;fill-opacity:1;fill-rule:nonzero;stroke:none"
         d="m 2993.59,2029.68 h 743.13 c 13.33,0 20,6.67 20,20 v 430.16 c 0,13.33 -6.67,20 -20,20 h -743.13 c -13.33,0 -20,-6.67 -20,-20 v -430.16 c 0,-13.33 6.67,-20 20,-20" /><path
         id="path146"
         style="fill:none;stroke:#cccccc;stroke-width:10;stroke-linecap:butt;stroke-linejoin:miter;stroke-miterlimit:10;stroke-dasharray:none;stroke-opacity:1"
         d="m 2993.59,2029.68 h 743.13 c 13.33,0 20,6.67 20,20 v 430.16 c 0,13.33 -6.67,20 -20,20 h -743.13 c -13.33,0 -20,-6.67 -20,-20 v -430.16 c 0,-13.33 6.67,-20 20,-20 z" /><path
         id="path148"
         style="fill:none;stroke:#3cb44b;stroke-width:15;stroke-linecap:square;stroke-linejoin:round;stroke-miterlimit:10;stroke-dasharray:none;stroke-opacity:1"
         d="m 3013.59,2418.9 h 200" /><g
         transform="scale(10)"
         id="g150"><text
           id="text154"
           style="font-variant:normal;font-weight:normal;font-size:10px;font-family:Arial;-inkscape-font-specification:Arial;writing-mode:lr-tb;fill:#000000;fill-opacity:1;fill-rule:nonzero;stroke:none"
           transform="matrix(1,0,0,-1,329.359,238.39)"><tspan
             id="tspan152"
             y="0"
             x="0 7.6999998 14.560537 20.908194 27.060537 33.408192 36.186314">DBpedia</tspan></text>
</g><path
         id="path156"
         style="fill:none;stroke:#e6194b;stroke-width:15;stroke-linecap:square;stroke-linejoin:round;stroke-miterlimit:10;stroke-dasharray:none;stroke-opacity:1"
         d="m 3013.59,2272.18 h 200" /><g
         transform="scale(10)"
         id="g158"><text
           id="text162"
           style="font-variant:normal;font-weight:normal;font-size:10px;font-family:Arial;-inkscape-font-specification:Arial;writing-mode:lr-tb;fill:#000000;fill-opacity:1;fill-rule:nonzero;stroke:none"
           transform="matrix(1,0,0,-1,329.359,223.718)"><tspan
             id="tspan160"
             y="0"
             x="0 6.0925684 12.220689 18.568344">Yago</tspan></text>
</g><path
         id="path164"
         style="fill:none;stroke:#4363d8;stroke-width:15;stroke-linecap:square;stroke-linejoin:round;stroke-miterlimit:10;stroke-dasharray:none;stroke-opacity:1"
         d="m 3013.59,2125.46 h 200" /><g
         transform="scale(10)"
         id="g166"><text
           id="text170"
           style="font-variant:normal;font-weight:normal;font-size:10px;font-family:Arial;-inkscape-font-specification:Arial;writing-mode:lr-tb;fill:#000000;fill-opacity:1;fill-rule:nonzero;stroke:none"
           transform="matrix(1,0,0,-1,329.359,209.046)"><tspan
             id="tspan168"
             y="0"
             x="0 5.5710988 13.442197">LOD</tspan></text>
</g></g></g></svg>