<?xml version="1.0" encoding="UTF-8" standalone="no"?>
<!-- Created with Inkscape (http://www.inkscape.org/) -->

<svg
   xmlns:dc="http://purl.org/dc/elements/1.1/"
   xmlns:cc="http://creativecommons.org/ns#"
   xmlns:rdf="http://www.w3.org/1999/02/22-rdf-syntax-ns#"
   xmlns:svg="http://www.w3.org/2000/svg"
   xmlns="http://www.w3.org/2000/svg"
   xmlns:sodipodi="http://sodipodi.sourceforge.net/DTD/sodipodi-0.dtd"
   xmlns:inkscape="http://www.inkscape.org/namespaces/inkscape"
   width="18.975176mm"
   height="20.128061mm"
   viewBox="0 0 18.975176 20.128061"
   version="1.1"
   id="svg3871"
   inkscape:version="0.92.2 (5c3e80d, 2017-08-06)"
   sodipodi:docname="vu.svg">
  <defs
     id="defs3865" />
  <sodipodi:namedview
     id="base"
     pagecolor="#ffffff"
     bordercolor="#666666"
     borderopacity="1.0"
     inkscape:pageopacity="0.0"
     inkscape:pageshadow="2"
     inkscape:zoom="1.979899"
     inkscape:cx="277.92114"
     inkscape:cy="-55.910583"
     inkscape:document-units="mm"
     inkscape:current-layer="layer1"
     showgrid="false"
     fit-margin-top="0"
     fit-margin-left="0"
     fit-margin-right="0"
     fit-margin-bottom="0"
     inkscape:window-width="1600"
     inkscape:window-height="836"
     inkscape:window-x="0"
     inkscape:window-y="27"
     inkscape:window-maximized="1" />
  <metadata
     id="metadata3868">
    <rdf:RDF>
      <cc:Work
         rdf:about="">
        <dc:format>image/svg+xml</dc:format>
        <dc:type
           rdf:resource="http://purl.org/dc/dcmitype/StillImage" />
        <dc:title></dc:title>
      </cc:Work>
    </rdf:RDF>
  </metadata>
  <g
     inkscape:label="Layer 1"
     inkscape:groupmode="layer"
     id="layer1"
     transform="translate(-0.16530513,-0.1377938)">
    <path
       inkscape:connector-curvature="0"
       style="fill:#0088d3;fill-rule:nonzero;stroke-width:0.26458332"
       id="path490"
       d="m 1.2561051,16.452498 v 0.408017 l 0.11989,-0.108302 c -0.0295,-0.114083 -0.0527,-0.228169 -0.0735,-0.342749 l -0.0464,0.04303 z" />
    <path
       inkscape:connector-curvature="0"
       style="fill:#0088d3;fill-rule:nonzero;stroke-width:0.26458332"
       id="path494"
       d="m 3.3152651,11.90543 c 0,-0.06768 0.0517,-0.135353 0.11892,-0.135353 0.0691,0 0.1199,0.06767 0.1199,0.135353 0,0.06864 -0.0508,0.118925 -0.1199,0.118925 -0.0672,0 -0.11892,-0.05028 -0.11892,-0.118925" />
    <path
       inkscape:connector-curvature="0"
       style="fill:#0088d3;fill-rule:nonzero;stroke-width:0.26458332"
       id="path498"
       d="m 10.925615,15.651925 c -0.18516,-0.51004 -0.68019,-0.851326 -1.3599099,-0.799134 -0.37514,-0.714508 -0.97122,-0.378534 -1.14187,-0.17017 0.18757,0.17017 0.3384,0.238342 0.56126,0.272193 v 0.152278 c -0.42542,-0.01596 -0.56126,-0.186129 -0.85085,-0.495051 -0.11892,1.02199 1.07275,1.380225 1.44741,0.547267 0.5622299,-0.01742 0.9020899,0.23591 1.0234399,0.595111 0.11554,0.357243 0,0.7498 -0.18854,0.935456 -0.34178,0.409464 -0.8856499,0.409464 -1.3787599,0.154686 -0.30747,-0.154686 -0.63088,-0.478126 -0.92095,-0.78509 -0.42542,-0.47475 -0.66327,-0.680681 -0.98814,-0.850382 -0.17743,-0.08411 -0.35581,-0.126643 -0.52889,-0.153247 -0.10248,-0.01836 -0.20352,-0.02998 -0.30359,-0.03288 -0.0991,0 -0.18855,0.01018 -0.27217,0.02514 -0.72806,0.08172 -1.46723,0.440899 -2.35144,0.518255 h -0.47716 c -0.29538,0.258643 -0.55499,0.489715 -0.78365,0.690338 l -0.56079,0.486338 c 5.3e-4,0.0044 0.004,0.0068 0.005,0.01015 -0.23978,0.219482 -0.37998,0.346154 -0.37998,0.346154 0.0682,0.528405 0.0846,0.78268 0.0846,1.259837 0,0.392557 -0.0164,0.580126 -0.0164,0.749824 -0.0174,0.169677 -0.0513,0.307462 -0.1025,0.442341 -0.0338,0.119891 -0.13487,0.222388 -0.3065,0.240255 -0.15275997,0.03142 -0.51098997,-0.240255 -0.62991997,-0.06864 -0.10201,0.135847 0.0174,0.459263 0.11893,0.542898 H 1.6283451 c 0.12038,-0.253807 0.17163,-0.407051 0.23979,-0.560295 0.0851,-0.118922 0.15325,-0.308922 0.22045,-0.426879 0.0701,-0.116985 0.13584,-0.289094 0.17161,-0.409482 0.0164,-0.11748 0.0682,-0.23735 0.0851,-0.321956 0.0667,-0.18806 0.16872,-0.35873 0.23689,-0.459761 0.0164,-0.03045 0.0372,-0.05609 0.0546,-0.08266 0.0464,0.06527 0.089,0.131482 0.11701,0.183694 0.23832,0.374664 0.44137,0.665695 0.78315,0.801045 0.13537,0.06914 0.22093,0.11942 0.2717,0.172104 0.0512,0.04834 0.0512,0.203057 0.0358,0.304583 0,0.136345 -0.0527,0.256754 -0.18951,0.307461 -0.22141,0.0851 -0.5777,-0.239784 -0.71355,-0.06817 -0.12085,0.136342 0.0174,0.391115 0.13584,0.560318 h 0.91805 c 0.22238,-0.355827 0.30795,-0.849413 0.30795,-1.26031 0,-0.425437 0,-0.527932 -0.25525,-0.630405 -0.0861,-0.04976 -0.17114,-0.255219 -0.23931,-0.475718 0,-0.02417 0.001,-0.06815 0.001,-0.116988 0.43895,-0.144534 0.92336,-0.401738 1.45321,-0.791348 0.003,0.06915 0.006,0.140222 0.0111,0.210754 0.0836,0.579676 0.15132,1.107112 0.59608,1.53248 0.11748,0.119893 0.21948,0.238345 0.23688,0.307483 0,0.05122 -0.0682,0.236879 -0.1194,0.322921 -0.10153,0.221914 -0.32245,0.408988 -0.49215,0.426879 -0.22141,0.03142 -0.47811,-0.257672 -0.64925,-0.08604 -0.15276,0.153244 0.0527,0.476662 0.1547,0.560294 h 0.934 c 0.30844,-0.560305 0.73387,-1.037463 0.88808,-1.343956 0.0841,-0.221917 0.0841,-0.307486 -0.087,-0.374666 -0.30553,-0.172104 -0.2712,-0.544362 -0.18757,-0.970743 0.0232,-0.06961 0.06,-0.140192 0.0972,-0.209333 0.23012,0.642958 0.53276,1.247256 1.23277,1.434827 0.11893,0.01692 0.28862,0.101524 0.30602,0.137311 0,0.03336 0,0.169675 -0.0174,0.27073 -0.0334,0.206404 -0.15228,0.444275 -0.30602,0.563673 -0.17017,0.136343 -0.59462,-0.307461 -0.73288,-0.05075 -0.10153,0.203525 0.0701,0.476189 0.1547,0.542898 h 0.90161 c 0.25573,-0.560296 0.47715,-1.055819 0.54532,-1.411644 0.0682,-0.425913 0.0682,-0.580125 -0.25575,-0.647803 -0.17065,-0.01787 -0.30697,-0.08654 -0.35773,-0.324384 -0.11893,-0.424945 -0.10153,-1.138986 -0.42543,-1.633046 0.35775,0.424448 0.74933,0.732875 1.0887,0.90161 0.78559,0.425913 1.6006699,0.271204 1.9922499,-0.290065 0.25621,-0.426408 0.25621,-0.902102 0.15325,-1.208593" />
    <path
       inkscape:connector-curvature="0"
       style="fill:#0088d3;fill-rule:nonzero;stroke-width:0.26458332"
       id="path502"
       d="m 6.8402851,10.918352 c 2.02657,-1.9240687 4.8010199,-3.9661147 8.3093199,-4.8353347 -2.96203,1.053883 -7.0325599,3.832202 -8.3093199,4.8353347 m -5.79012,-0.9847657 c 0.32342,-3.4764 1.90861,-6.029904 2.98184,-7.204176 -1.5499,2.282799 -2.43556,5.448816 -2.98184,7.204176 m 1.48173,0.4728127 c -0.0179,-0.134408 -0.0861,-0.219483 -0.20305,-0.287181 0.23786,-0.5781887 0.47426,-1.0398627 0.93642,-1.6533367 -0.42736,0.853258 -0.63137,1.5672967 -0.73338,1.9405177 M 18.742495,4.8570283 c -0.69808,-0.0851 -2.28327,0.08604 -3.64416,0.39206 0.85085,-0.427847 1.09015,-0.494083 1.39666,-0.682122 0.0846,-0.04981 0.13536,-0.170667 0.13536,-0.357267 0,-0.204989 -0.18515,-0.237848 -0.40706,-0.204989 -0.22431,0.01837 -0.69953,0.189032 -1.27869,0.391589 -1.1588,0.478126 -2.82472,1.260808 -4.80053,2.589786 -1.7369799,1.192139 -2.8948199,2.21269 -4.1556199,3.4889567 -0.32825,0.336471 -0.70823,0.756079 -1.1003,1.218743 -0.089,-0.152773 -0.14262,-0.188064 -0.2949,-0.145032 0.44186,-1.005562 0.49262,-1.055841 0.73241,-1.6335337 0.10006,-0.273632 0.0503,-0.477655 -0.0508,-0.596083 -0.13778,-0.239784 -0.32584,-0.06914 -0.44428,0.0174 -0.18563,0.220448 -0.23736,0.272664 -0.64731,0.7826797 0.51097,-1.7031437 0.78413,-1.8394647 1.25983,-2.8116497 0.0527,-0.116989 0.0527,-0.321482 -0.0174,-0.474726 -0.0498,-0.120388 -0.11796,-0.189032 -0.21899,-0.135377 -0.18854,0.08413 -0.2393,0.18469 -0.59752,0.610103 0.51049,-0.968338 1.20907,-2.109724 1.27771,-2.295359 0.0841,-0.205933 0.20353,-0.240278 -0.016,-0.546769 -0.17113,-0.255738 -0.32439,-0.06914 -0.44525,0.05172 -0.10007,0.04981 -0.30602,0.289094 -0.66326,0.715004 0.74979,-1.397624 1.44885,-2.043017 1.58373,-2.282303 0.16921,-0.272667 0.18661,-0.339847 0.0507,-0.645393 -0.11941,-0.273138 -0.35725,-0.154686 -0.47666,0 -0.52743,0.509048 -0.49456,0.391117 -1.3778,1.412118 0.45878,-1.210032 1.25936,-2.130025 1.54796,-2.60428 0.12086,-0.18803999 0.1373,-0.25668299 0.0169,-0.71691799 -0.0677,-0.202557 -0.23639,-0.271698 -0.40753,-0.255267 -0.25671,0.05271 -0.4931,0.187568 -0.97122,0.595608 -0.97074,0.86921999 -2.26394,2.13193899 -3.32025,4.39443599 -1.02198997,2.128089 -1.24291997,4.137726 -1.24291997,5.5150487 0,2.14308 0.56175,3.997536 1.07854997,5.164558 0,-0.044 -0.005,-0.08026 -0.006,-0.122793 -0.0324,-0.580126 0.0682,-1.243883 0.17017,-1.566355 0.21561,-0.851326 0.49842,-1.309621 0.73579,-1.680911 l -0.41334,-0.566573 0.54628,0.169674 -0.32341,-0.715004 c 0,0 0.41043,0.0469 0.72758,0.468942 0.19917,-0.178385 0.60187,-0.336471 0.99151,-0.02658 0.2572,-0.01646 0.40996,0.03529 0.54532,0.102965 0.29007,0.169675 0.25477,0.477158 0.23834,0.545306 -0.15326,-0.136818 -0.57917,-0.410921 -1.03892,-0.05269 l 0.85134,0.290557 -1.07323,0.08411 v 1.108033 l -1.27772,1.137541 v 0.438468 l 0.8755,-0.771562 v 0.40318 l -1.54168,1.383605 v 0.420106 l 1.94391,-1.747123 v 0.0053 l 0.48924,-0.43946 c 10e-4,0 0.004,0.0039 0.005,0.0039 0.29055,-0.239286 0.40947,-0.357738 0.57916,-0.442341 0.20401,-0.137287 0.23929,0.01499 0.27362,0.235911 0.0508,0.188536 0.27073,0.376599 0.73241,-0.04834 1.36086,-1.228396 2.79183,-1.891683 4.30693,-2.62215 -0.81991,0.560298 -2.33258,1.393754 -2.8455,1.957425 -0.22092,0.254299 0,0.884679 0.35823,0.611542 0.6478,-0.425416 1.49961,-0.493589 1.92601,-0.475695 0.20305,0 0.42591,-0.135847 0.54532,-0.307459 0.11699,-0.152776 0.11699,-0.321977 -0.15422,-0.34131 1.3961699,-0.423502 1.7548799,-0.542898 2.9126999,-0.645393 0.30457,-0.01693 0.49215,-0.186129 0.54291,-0.444275 0.0527,-0.23591 -0.0677,-0.305051 -0.35726,-0.337933 -0.34036,-0.05219 -0.93642,0.05078 -1.53298,0.151804 1.34733,-0.577691 2.98038,-0.884679 4.27502,-1.259342 0.40899,-0.117483 0.46072,-0.239784 0.47765,-0.475718 0.0493,-0.2571807 -0.1552,-0.2571807 -0.61445,-0.2571807 -0.93643,0.05125 -2.33162,0.1372897 -4.46068,0.7507657 2.00916,-1.0055377 3.13122,-1.4826957 4.95523,-1.9424327 0.49262,-0.136819 0.57867,-0.255738 0.61349,-0.510508 0.0851,-0.289095 -0.15421,-0.289095 -0.3244,-0.255268 -0.25428,0.01645 -0.86777,0 -2.11311,0.374193 1.21198,-0.526942 2.53805,-1.140445 3.49187,-1.44644 0.20498,-0.07011 0.32439,-0.204494 0.32439,-0.42735 0,-0.169699 -0.0512,-0.185656 -0.2567,-0.185656 -0.40753,0 -1.07179,0.134409 -1.87234,0.373224 1.63449,-0.698576 2.12905,-0.936424 3.21727,-1.124487 0.35968,-0.08314 0.42639,-0.203031 0.44186,-0.425415 0.0532,-0.305525 -0.15084,-0.288126 -0.38966,-0.305525" />
  </g>
</svg>
