<svg xmlns="http://www.w3.org/2000/svg" viewBox="0 0 150 150"><g fill="#ed583a"><path d="M131.3 24.82a6.073 6.073 0 0 1-6.076-6.083 6.075 6.075 0 1 1 12.151 0 6.074 6.074 0 0 1-6.075 6.083zm0-24.8c-10.329 0-18.694 8.377-18.694 18.717 0 2.205.4 4.313 1.1 6.277H49.131c-.941 4.611-2.99 8.777-5.726 12.401l38.21-.006v63.326c4.6.948 8.757 2.993 12.37 5.731V37.408l37.314.047c10.327 0 18.694-8.376 18.694-18.717S141.628.021 131.3.021"/><path d="M18.69 24.82a6.076 6.076 0 0 1-6.078-6.083c0-3.365 2.72-6.082 6.078-6.082s6.077 2.717 6.077 6.082a6.075 6.075 0 0 1-6.077 6.083zM106.504-.007L18.69.02C8.36.02-.008 8.397-.008 18.737S8.36 37.454 18.69 37.454c10.326 0 18.692-8.377 18.692-18.717 0-2.235-.411-4.37-1.128-6.357h64.521c.95-4.605 2.995-8.765 5.73-12.388M75.3 137.36a6.076 6.076 0 0 1-6.078-6.084 6.075 6.075 0 0 1 6.078-6.081 6.074 6.074 0 0 1 6.077 6.081 6.075 6.075 0 0 1-6.077 6.084zm0-24.801c-2.217 0-4.334.405-6.305 1.114V49.812H56.618l.007 81.062c-.002.134-.021.268-.021.402 0 10.34 8.365 18.721 18.696 18.721 10.326 0 18.694-8.38 18.694-18.72 0-10.343-8.368-18.718-18.694-18.718"/></g></svg>